<svg id="instagram" xmlns="http://www.w3.org/2000/svg" width="28" height="25" viewBox="0 0 28 25">
  <rect id="base" width="28" height="25" fill="none"/>
  <path id="Path_1388" data-name="Path 1388" d="M-10.933-14.99a5.6,5.6,0,0,0-5.61,5.61,5.6,5.6,0,0,0,5.61,5.61,5.6,5.6,0,0,0,5.61-5.61A5.6,5.6,0,0,0-10.933-14.99Zm0,9.258A3.654,3.654,0,0,1-14.58-9.38a3.651,3.651,0,0,1,3.647-3.647A3.651,3.651,0,0,1-7.285-9.38,3.654,3.654,0,0,1-10.933-5.732Zm7.148-9.487a1.309,1.309,0,0,0-1.309-1.309A1.309,1.309,0,0,0-6.4-15.22a1.306,1.306,0,0,0,1.309,1.309A1.306,1.306,0,0,0-3.784-15.22Zm3.716,1.328a6.476,6.476,0,0,0-1.768-4.585,6.519,6.519,0,0,0-4.585-1.768c-1.807-.1-7.222-.1-9.028,0a6.509,6.509,0,0,0-4.585,1.763A6.5,6.5,0,0,0-21.8-13.9c-.1,1.807-.1,7.222,0,9.028A6.476,6.476,0,0,0-20.034-.283a6.527,6.527,0,0,0,4.585,1.768c1.807.1,7.222.1,9.028,0A6.476,6.476,0,0,0-1.836-.283,6.519,6.519,0,0,0-.068-4.868C.034-6.675.034-12.085-.068-13.892ZM-2.4-2.93A3.693,3.693,0,0,1-4.482-.85c-1.44.571-4.858.439-6.45.439s-5.015.127-6.45-.439a3.693,3.693,0,0,1-2.08-2.08c-.571-1.44-.439-4.858-.439-6.45s-.127-5.015.439-6.45a3.693,3.693,0,0,1,2.08-2.08c1.44-.571,4.858-.439,6.45-.439s5.015-.127,6.45.439A3.693,3.693,0,0,1-2.4-15.83c.571,1.44.439,4.858.439,6.45S-1.831-4.365-2.4-2.93Z" transform="translate(25 22)" fill="#0096b6"/>
</svg>
