<svg id="snapchat" xmlns="http://www.w3.org/2000/svg" width="28" height="25" viewBox="0 0 28 25">
  <rect id="base" width="28" height="25" fill="none"/>
  <path id="Path_1385" data-name="Path 1385" d="M-.056-2.7a.533.533,0,0,0-.377-.774c-3.4-.56-4.928-4.048-4.992-4.2L-5.437-7.7a1.109,1.109,0,0,1-.12-.915c.2-.462.919-.692,1.4-.843.134-.042.26-.082.363-.123.847-.335,1.273-.746,1.264-1.222a1.014,1.014,0,0,0-.761-.873h0a1.321,1.321,0,0,0-1,0,2.917,2.917,0,0,1-1.078.306.957.957,0,0,1-.42-.1c.1-1.768.346-4.266-.278-5.665a6.607,6.607,0,0,0-6.188-3.986l-.494,0a6.652,6.652,0,0,0-6.176,3.984c-.624,1.4-.377,3.908-.278,5.663a1,1,0,0,1-.486.106,2.794,2.794,0,0,1-1.15-.307,1.257,1.257,0,0,0-1.611.755c-.069.36.093.886,1.251,1.343.448.177,1.514.386,1.76.967a1.11,1.11,0,0,1-.12.916l-.012.025c-.064.148-1.594,3.637-4.992,4.2A.519.519,0,0,0-25-2.964q0,.015,0,.029c.058,1.016,2.335,1.413,3.345,1.57a9.045,9.045,0,0,1,.319,1.178.579.579,0,0,0,.607.441,18.445,18.445,0,0,1,1.9-.23,3.86,3.86,0,0,1,2.746,1,5.608,5.608,0,0,0,3.558,1.338A5.5,5.5,0,0,0-8.914,1.029,3.864,3.864,0,0,1-6.167.024c.959,0,1.438.211,1.9.211h.014A.565.565,0,0,0-3.663-.2a9.156,9.156,0,0,1,.318-1.17C-1.386-1.672-.311-2.108-.056-2.7Z" transform="translate(27 22)" fill="#0096b6"/>
</svg>
