<svg id="twitter" xmlns="http://www.w3.org/2000/svg" width="28" height="25" viewBox="0 0 28 25">
  <rect id="base" width="28" height="25" fill="none"/>
  <path id="Path_1384" data-name="Path 1384" d="M-2.57-14.467A11.014,11.014,0,0,0,0-17.116a10.272,10.272,0,0,1-2.95.793A5.11,5.11,0,0,0-.7-19.147,10.087,10.087,0,0,1-3.95-17.909a5.112,5.112,0,0,0-3.744-1.618A5.121,5.121,0,0,0-12.817-14.4a5.784,5.784,0,0,0,.127,1.174,14.564,14.564,0,0,1-10.565-5.362,5.085,5.085,0,0,0-.7,2.586,5.12,5.12,0,0,0,2.284,4.267,5.16,5.16,0,0,1-2.316-.65v.063A5.124,5.124,0,0,0-19.876-7.3a5.418,5.418,0,0,1-1.348.174,6.458,6.458,0,0,1-.968-.079A5.133,5.133,0,0,0-17.4-3.648a10.262,10.262,0,0,1-6.361,2.189A10.6,10.6,0,0,1-25-1.523a14.479,14.479,0,0,0,7.868,2.3A14.478,14.478,0,0,0-2.554-13.8C-2.554-14.023-2.554-14.245-2.57-14.467Z" transform="translate(27 22)" fill="#0096b6"/>
</svg>
