<svg id="youtube" xmlns="http://www.w3.org/2000/svg" width="28" height="25" viewBox="0 0 28 25">
  <rect id="base" width="28" height="25" fill="none"/>
  <path id="Path_1387" data-name="Path 1387" d="M-1.286-15.816a3.351,3.351,0,0,0-2.358-2.373c-2.08-.561-10.419-.561-10.419-.561s-8.339,0-10.419.561a3.351,3.351,0,0,0-2.358,2.373,35.15,35.15,0,0,0-.557,6.46,35.15,35.15,0,0,0,.557,6.46A3.3,3.3,0,0,0-24.481-.561C-22.4,0-14.062,0-14.062,0S-5.724,0-3.644-.561A3.3,3.3,0,0,0-1.286-2.9a35.15,35.15,0,0,0,.557-6.46A35.15,35.15,0,0,0-1.286-15.816ZM-16.79-5.391v-7.93l6.97,3.965Z" transform="translate(28.396 22)" fill="#0096b6"/>
</svg>
